<?xml version="1.0" standalone="no"?><!DOCTYPE svg PUBLIC "-//W3C//DTD SVG 1.1//EN" "http://www.w3.org/Graphics/SVG/1.1/DTD/svg11.dtd"><svg t="1593168704773" class="icon" viewBox="0 0 1024 1024" version="1.1" xmlns="http://www.w3.org/2000/svg" p-id="532" xmlns:xlink="http://www.w3.org/1999/xlink" width="128" height="128"><defs><style type="text/css"></style></defs><path d="M512 597.333333v341.333334H170.666667a341.333333 341.333333 0 0 1 341.333333-341.333334z m0-42.666666c-141.44 0-256-114.56-256-256s114.56-256 256-256 256 114.56 256 256-114.56 256-256 256z m384 170.666666h42.666667v213.333334h-341.333334v-213.333334h42.666667v-42.666666a128 128 0 0 1 256 0v42.666666z m-85.333333 0v-42.666666a42.666667 42.666667 0 0 0-85.333334 0v42.666666h85.333334z" p-id="533" ></path></svg>