<?xml version="1.0" standalone="no"?><!DOCTYPE svg PUBLIC "-//W3C//DTD SVG 1.1//EN" "http://www.w3.org/Graphics/SVG/1.1/DTD/svg11.dtd"><svg class="icon" width="128px" height="128.00px" viewBox="0 0 1024 1024" version="1.1" xmlns="http://www.w3.org/2000/svg"><path d="M479.978057 215.625143l-21.211428 143.169828a11685.888 11685.888 0 0 1 100.790857-10.605714c173.290057 14.160457 267.044571 109.626514 281.219657 286.354286-7.124114 240.464457-125.600914 362.349714-355.488914 365.919086C294.282971 986.375314 193.462857 929.777371 182.857143 830.756571c3.4816-56.510171 35.313371-88.341943 95.495314-95.466057 14.101943 0 38.882743 12.434286 74.283886 37.127315 53.072457 35.386514 97.250743 53.028571 132.651886 53.028571 84.8896-3.4816 132.637257-63.634286 143.2576-180.297143-3.569371-88.341943-46.006857-134.319543-127.341715-137.888914-28.350171 0-58.368 8.879543-90.199771 26.5216-24.795429 14.160457-47.747657 21.211429-68.973714 21.211428-46.006857 0-72.543086-21.211429-79.579429-63.634285v-47.733029l37.127314-286.354286c7.050971-91.896686 42.452114-134.319543 106.130286-127.268571h323.642514c60.123429 3.554743 93.681371 31.817143 100.820115 84.845714-3.569371 67.189029-35.401143 100.746971-95.509943 100.746972h-254.683429z"  /></svg>