<?xml version="1.0" standalone="no"?><!DOCTYPE svg PUBLIC "-//W3C//DTD SVG 1.1//EN" "http://www.w3.org/Graphics/SVG/1.1/DTD/svg11.dtd"><svg class="icon" width="128px" height="128.00px" viewBox="0 0 1024 1024" version="1.1" xmlns="http://www.w3.org/2000/svg"><path d="M509.396114 537.951086c-80.047543 6.977829-121.782857 53.686857-125.205943 140.156343 3.423086 86.542629 45.1584 131.554743 125.205943 134.9632 79.945143-3.408457 123.392-48.420571 130.399086-134.9632-7.007086-86.454857-50.453943-133.178514-130.399086-140.141715m-26.082743-145.349485c27.794286-10.386286 55.588571-15.579429 83.456-15.579429C737.133714 394.400914 831.019886 494.723657 848.457143 678.107429 827.5968 878.840686 714.5472 984.3712 509.396114 994.742857 300.734171 987.8528 189.396114 882.336914 175.542857 678.107429c10.430171-183.383771 123.392-385.813943 339.061029-607.319772 10.430171-10.386286 24.283429-22.469486 41.735314-36.337371A174.08 174.08 0 0 1 598.074514 29.257143c52.150857 13.867886 83.456 45.012114 93.9008 93.432686-3.510857 20.772571-12.229486 39.8336-26.097371 57.109942a10279.979886 10279.979886 0 0 1-67.803429 77.853258c-59.172571 65.784686-97.397029 110.7968-114.761143 134.9632"  /></svg>