<?xml version="1.0" standalone="no"?><!DOCTYPE svg PUBLIC "-//W3C//DTD SVG 1.1//EN" "http://www.w3.org/Graphics/SVG/1.1/DTD/svg11.dtd"><svg class="icon" width="128px" height="128.00px" viewBox="0 0 1024 1024" version="1.1" xmlns="http://www.w3.org/2000/svg"><path d="M509.396114 496.4352c79.945143-3.408457 123.392-50.132114 130.399086-140.141714-7.007086-83.075657-50.453943-128-130.399086-134.977829-80.047543 6.977829-121.782857 51.902171-125.205943 134.9632 3.423086 90.024229 45.1584 136.747886 125.205943 140.141714m31.305143 145.349486v-5.193143c-27.882057 10.386286-55.676343 15.579429-83.470628 15.579429C286.807771 638.3616 192.892343 539.735771 175.542857 356.278857 192.906971 159.0272 304.157257 50.029714 509.396114 29.257143 718.043429 43.125029 831.019886 152.137143 848.457143 356.278857c-13.941029 186.865371-126.976 389.310171-339.061029 607.319772-13.941029 13.867886-27.882057 22.542629-41.735314 25.951085-17.451886 3.408457-31.305143 5.193143-41.735314 5.193143-59.172571-6.890057-90.463086-36.337371-93.9008-88.254171 0-13.780114 8.645486-31.1296 26.082743-51.902172a8985.161143 8985.161143 0 0 1 83.470628-93.432685c48.654629-55.310629 81.671314-95.144229 99.108572-119.369143"  /></svg>