<?xml version="1.0" standalone="no"?><!DOCTYPE svg PUBLIC "-//W3C//DTD SVG 1.1//EN" "http://www.w3.org/Graphics/SVG/1.1/DTD/svg11.dtd"><svg class="icon" width="128px" height="128.00px" viewBox="0 0 1024 1024" version="1.1" xmlns="http://www.w3.org/2000/svg"><path d="M486.048914 830.025143h244.077715c67.145143 3.554743 102.546286 33.631086 106.115657 90.141257-3.569371 60.152686-35.401143 90.141257-95.509943 90.141257H284.437943c-67.232914 0-100.820114-29.988571-100.820114-90.141257-3.554743-17.642057 5.310171-40.608914 26.536228-68.944457 28.2624-31.817143 56.539429-63.634286 84.8896-95.451429 116.736-123.6992 201.6256-226.2016 254.683429-307.580343 31.831771-42.422857 47.747657-84.845714 47.747657-127.268571-7.124114-63.634286-38.955886-98.9184-95.509943-106.057143-56.612571 0-97.323886 40.682057-122.016914 121.973029-21.226057 67.189029-51.331657 99.006171-90.2144 95.451428-67.232914 0-100.790857-31.817143-100.790857-95.451428C206.570057 156.540343 312.685714 54.037943 507.260343 29.257143c191.019886 14.175086 291.825371 107.885714 302.431086 281.058743 0 99.0208-79.579429 238.635886-238.752915 418.947657-42.452114 49.546971-70.802286 83.104914-84.904228 100.7616"  /></svg>