<?xml version="1.0" standalone="no"?><!DOCTYPE svg PUBLIC "-//W3C//DTD SVG 1.1//EN" "http://www.w3.org/Graphics/SVG/1.1/DTD/svg11.dtd"><svg class="icon" width="128px" height="128.00px" viewBox="0 0 1024 1024" version="1.1" xmlns="http://www.w3.org/2000/svg"><path d="M509.410743 200.557714c-62.200686 3.4816-93.301029 38.107429-93.301029 103.804343 3.393829 65.784686 34.494171 98.625829 93.301029 98.625829 62.200686 0 94.997943-32.841143 98.479543-98.625829-3.4816-65.682286-36.278857-100.322743-98.479543-103.804343m0 358.151315c-76.053943 6.992457-115.8144 50.219886-119.222857 129.784685 3.408457 86.528 43.168914 131.540114 119.222857 134.9632 72.557714-3.423086 114.029714-48.420571 124.401371-134.9632-3.4816-83.061029-44.9536-126.288457-124.401371-129.784685m0 436.033828C305.488457 984.356571 196.608 887.515429 182.857143 704.073143c0-96.841143 48.347429-174.709029 145.130057-233.603657-69.163886-44.924343-103.658057-107.227429-103.658057-186.850743C234.686171 127.882971 329.684114 43.125029 509.410743 29.257143c179.638857 13.867886 276.421486 98.625829 290.260114 254.3616-3.4816 83.0464-38.063543 145.334857-103.658057 186.850743C789.313829 522.386286 837.661257 600.239543 841.142857 704.073143 827.2896 890.923886 716.741486 987.867429 509.410743 994.742857"  /></svg>