<?xml version="1.0" standalone="no"?><!DOCTYPE svg PUBLIC "-//W3C//DTD SVG 1.1//EN" "http://www.w3.org/Graphics/SVG/1.1/DTD/svg11.dtd"><svg class="icon" width="128px" height="128.00px" viewBox="0 0 1024 1024" version="1.1" xmlns="http://www.w3.org/2000/svg"><path d="M501.5552 29.257143c167.189943 10.386286 262.933943 91.721143 287.349029 243.960686-3.510857 90.024229-40.082286 157.520457-109.714286 202.459428C780.170971 527.5648 834.121143 605.418057 841.142857 709.237029 820.238629 889.212343 708.739657 984.356571 506.7776 994.742857 318.698057 987.8528 210.695314 908.288 182.857143 755.960686c3.423086-48.420571 38.282971-77.853257 104.491886-88.239543 24.327314 3.496229 48.727771 25.951086 73.142857 67.4816 38.282971 58.88 87.010743 88.254171 146.285714 88.254171 76.565943-3.423086 118.359771-44.938971 125.381486-124.591543 0-62.288457-40.082286-100.322743-120.159086-114.190628-69.705143-10.386286-104.491886-41.530514-104.491886-93.432686 0-44.938971 29.549714-74.371657 88.824686-88.254171 66.121143-17.261714 99.254857-51.902171 99.254857-103.804343-3.510857-55.310629-34.859886-84.757943-94.032457-88.254172-48.815543 0-90.609371 25.965714-125.396114 77.867886-24.400457 34.640457-50.527086 51.902171-78.365257 51.902172-52.238629-3.408457-80.164571-36.337371-83.587658-98.625829C238.533486 120.992914 334.365257 50.029714 501.5552 29.257143"  /></svg>