<?xml version="1.0" standalone="no"?><!DOCTYPE svg PUBLIC "-//W3C//DTD SVG 1.1//EN" "http://www.w3.org/Graphics/SVG/1.1/DTD/svg11.dtd"><svg class="icon" width="128px" height="128.00px" viewBox="0 0 1024 1024" version="1.1" xmlns="http://www.w3.org/2000/svg"><path  d="M566.520686 785.993143H247.178971c-58.426514 0-89.336686-26.097371-92.701257-78.292114-3.466971-20.874971 3.364571-41.735314 20.597029-62.610286L468.670171 107.52C492.631771 55.354514 537.307429 29.257143 602.550857 29.257143c99.562057 7.021714 151.069257 62.624914 154.5216 167.0144V608.548571h20.611657c54.8864 7.021714 85.781943 36.542171 92.701257 88.722286-6.919314 55.690971-37.814857 85.284571-92.701257 88.722286h-20.611657v114.819657c0 62.610286-32.6656 93.930057-97.865143 93.930057-65.258057 0-96.168229-31.305143-92.701257-93.930057v-114.834286z m0-177.444572V238.006857h-5.149257L386.238171 608.548571h180.282515z"  /></svg>