<?xml version="1.0" standalone="no"?><!DOCTYPE svg PUBLIC "-//W3C//DTD SVG 1.1//EN" "http://www.w3.org/Graphics/SVG/1.1/DTD/svg11.dtd"><svg class="icon" width="128px" height="128.00px" viewBox="0 0 1024 1024" version="1.1" xmlns="http://www.w3.org/2000/svg"><path d="M274.344229 856.532114l339.573028-641.667657H269.019429C201.801143 214.864457 168.228571 183.047314 168.228571 119.427657 168.228571 62.902857 201.801143 32.826514 269.034057 29.257143H757.174857c56.539429 3.569371 90.199771 35.386514 100.805486 95.451428 0 21.226057-10.605714 51.3024-31.831772 90.155886l-334.262857 684.090514c-3.569371 7.124114-7.124114 12.434286-10.620343 15.915886-28.350171 56.597943-63.663543 83.017143-106.115657 79.550172-67.232914 0-104.374857-30.0032-111.425828-90.155886 0-7.050971 1.755429-15.901257 5.310171-26.5216 0-7.050971 1.755429-14.087314 5.310172-21.211429"  /></svg>