<?xml version="1.0" standalone="no"?><!DOCTYPE svg PUBLIC "-//W3C//DTD SVG 1.1//EN" "http://www.w3.org/Graphics/SVG/1.1/DTD/svg11.dtd"><svg t="1594118618566" class="icon" viewBox="0 0 1024 1024" version="1.1" xmlns="http://www.w3.org/2000/svg" p-id="2394" xmlns:xlink="http://www.w3.org/1999/xlink" width="128" height="128"><defs><style type="text/css"></style></defs><path d="M512 0C229.376 0 0 229.376 0 512s229.376 512 512 512 512-229.376 512-512S794.624 0 512 0z m-6.656 226.816c80.896 0 147.456 66.56 148.48 149.504 0 81.92-66.56 149.504-148.48 149.504s-148.48-66.56-148.48-149.504c0-81.92 66.56-149.504 148.48-149.504zM796.672 742.4c0 54.784-86.528 54.784-186.368 54.784H414.208c-104.448 0-186.368 0-186.368-55.808v-10.752c0-104.448 84.48-188.928 186.368-188.928h197.12c102.4 0 186.368 84.48 185.344 189.952v10.752z" p-id="2395" ></path></svg>